<?xml version="1.0" standalone="no"?>
<!DOCTYPE svg PUBLIC "-//W3C//DTD SVG 20010904//EN"
 "http://www.w3.org/TR/2001/REC-SVG-20010904/DTD/svg10.dtd">
<svg version="1.0" xmlns="http://www.w3.org/2000/svg"
 width="512.000000pt" height="512.000000pt" viewBox="0 0 512.000000 512.000000"
 preserveAspectRatio="xMidYMid meet">
<metadata>
Created by potrace 1.14, written by Peter Selinger 2001-2017
</metadata>
<g transform="translate(0.000000,512.000000) scale(0.100000,-0.100000)"
fill="#000000" stroke="none">
<path d="M760 5111 c0 -6 5 -13 10 -16 19 -12 10 -22 -22 -29 -43 -8 -153 -54
-200 -83 -21 -13 -42 -23 -47 -23 -18 0 -187 -139 -226 -186 -68 -83 -92 -119
-162 -244 -23 -40 -63 -153 -63 -175 0 -22 -18 -18 -25 5 -3 11 -11 20 -16 20
-5 0 -9 -709 -9 -1840 0 -1196 3 -1840 10 -1840 5 0 13 12 16 26 9 34 16 23
44 -61 53 -162 173 -338 302 -442 123 -99 235 -157 409 -212 50 -16 3537 -16
3588 0 308 96 511 256 649 509 22 41 54 117 71 168 l31 93 0 1767 0 1767 -34
95 c-57 162 -169 339 -268 426 -120 105 -302 206 -415 229 -37 7 -43 21 -13
30 11 3 20 11 20 16 0 5 -703 9 -1825 9 -1134 0 -1825 -4 -1825 -9z m845
-1581 c86 -22 143 -48 187 -85 15 -13 33 -25 39 -27 7 -2 10 -9 8 -16 -3 -8
-18 -5 -49 10 -243 111 -691 82 -905 -60 -138 -91 -247 -210 -287 -314 -26
-67 -47 -161 -48 -214 0 -47 32 -154 61 -201 24 -39 114 -122 149 -136 14 -6
36 -19 50 -28 14 -9 63 -25 110 -34 96 -20 268 -15 415 11 93 16 125 17 125 5
0 -9 -48 -25 -185 -61 -199 -53 -447 -32 -620 53 -106 52 -178 119 -222 205
-34 69 -38 86 -41 167 -5 112 14 191 71 299 73 137 187 243 364 336 97 52 173
77 303 100 139 26 357 21 475 -10z m-331 -297 c50 -8 113 -70 118 -116 4 -44
-10 -98 -33 -123 -26 -27 -24 -50 6 -86 20 -24 25 -40 25 -87 0 -84 -15 -118
-64 -144 -38 -20 -57 -22 -246 -25 -186 -3 -205 -2 -217 14 -14 19 -19 296 -7
328 5 14 30 16 169 16 135 0 166 3 179 16 22 21 20 40 -6 58 -18 13 -53 16
-173 16 -104 0 -155 4 -163 12 -18 18 -15 88 5 110 14 16 34 18 192 18 97 0
194 -3 215 -7z m330 -9 c12 -11 16 -36 16 -99 0 -111 5 -115 120 -115 116 0
120 4 120 119 0 103 7 113 71 107 24 -2 49 -4 55 -5 23 -2 26 -39 24 -301 -1
-193 -4 -267 -13 -272 -7 -4 -33 -8 -59 -8 -68 0 -78 14 -78 114 0 50 -5 87
-12 94 -15 15 -181 16 -209 2 -17 -9 -19 -22 -19 -99 0 -107 -5 -113 -87 -109
l-58 3 -7 185 c-10 274 -6 370 17 386 26 19 100 18 119 -2z m906 3 c25 -13 39
-41 100 -207 16 -41 51 -135 79 -209 39 -102 48 -137 40 -148 -8 -8 -34 -13
-75 -13 -75 0 -92 12 -119 86 -10 27 -31 78 -46 114 -15 36 -30 77 -34 92 -8
33 -27 50 -48 43 -19 -8 -88 -161 -81 -180 3 -8 25 -18 47 -22 35 -7 45 -15
60 -47 10 -21 17 -48 15 -60 -3 -20 -8 -21 -168 -24 -175 -3 -210 1 -210 21 0
8 13 40 29 73 15 32 39 82 51 109 38 83 139 298 158 335 10 19 28 37 42 41 42
12 134 9 160 -4z m699 2 c94 -15 126 -63 123 -184 -3 -95 -14 -116 -82 -150
-31 -16 -50 -32 -50 -43 0 -9 17 -41 38 -71 70 -101 72 -104 60 -118 -13 -16
-108 -17 -140 -2 -13 6 -54 53 -93 105 -53 72 -75 94 -90 92 -18 -3 -20 -12
-23 -93 -3 -102 -11 -115 -71 -115 -85 0 -81 -8 -81 174 0 113 4 166 12 174 8
8 65 12 189 12 189 0 209 5 209 50 0 34 -33 40 -213 40 -189 0 -193 1 -198 55
-4 50 0 61 24 73 26 13 305 14 386 1z m642 -15 c15 -18 49 -102 110 -269 22
-60 51 -137 63 -170 13 -33 27 -68 30 -79 11 -33 -12 -46 -79 -46 -71 0 -89
13 -106 76 -16 56 -98 247 -114 263 -17 17 -40 2 -51 -32 -4 -12 -17 -44 -30
-71 -38 -79 -30 -106 30 -106 28 0 49 -23 65 -69 19 -58 11 -61 -186 -61 -147
0 -175 2 -180 15 -3 9 9 48 27 88 29 62 85 185 187 407 14 30 31 58 37 62 6 4
50 8 97 8 68 0 89 -4 100 -16z m854 5 c15 -23 -7 -61 -52 -89 l-47 -30 -298 0
c-332 0 -329 -1 -294 65 33 61 48 64 383 64 202 1 304 -2 308 -10z m-281 -215
c12 -31 7 -329 -6 -342 -12 -12 -95 -16 -122 -6 -14 5 -16 30 -16 169 0 90 3
170 6 179 5 12 21 16 69 16 48 0 64 -4 69 -16z m-2674 -411 c0 -13 -63 -100
-80 -110 -12 -8 -24 -4 -49 16 -44 36 -36 64 22 85 45 15 107 21 107 9z m287
-728 c2 -6 -8 -22 -22 -38 -25 -26 -28 -27 -141 -27 -127 0 -172 -12 -199 -54
-26 -39 -12 -100 29 -131 30 -23 41 -25 181 -27 163 -3 177 -9 128 -54 l-28
-26 -160 4 c-149 3 -164 5 -210 29 -66 35 -87 66 -93 134 -7 82 18 139 71 167
23 12 58 25 77 29 53 11 363 6 367 -6z m227 -1 c13 -12 16 -40 16 -134 0 -152
-2 -150 135 -150 85 0 104 -3 109 -16 9 -24 8 -31 -10 -48 -13 -13 -44 -16
-183 -16 -116 0 -171 4 -179 12 -8 8 -12 62 -12 178 0 116 4 170 12 178 18 18
94 15 112 -4z m456 6 c11 -7 16 -37 20 -121 5 -108 6 -112 34 -134 54 -43 145
-40 195 6 31 28 31 28 31 133 0 117 5 126 71 126 59 0 69 -20 69 -134 0 -148
-9 -172 -75 -202 -95 -44 -245 -57 -326 -29 -127 44 -139 62 -139 216 0 91 3
116 17 131 17 20 77 24 103 8z m981 -18 c47 -29 56 -63 29 -106 -25 -41 -25
-51 0 -83 26 -33 26 -87 0 -113 -38 -38 -112 -50 -303 -49 -217 1 -215 0 -215
110 0 125 -9 119 176 119 148 0 160 1 178 21 18 20 18 21 -1 35 -14 11 -55 14
-166 14 -81 0 -154 3 -163 6 -9 3 -16 16 -16 28 0 45 12 48 235 44 198 -3 212
-4 246 -26z"/>
<path d="M1020 2861 c-13 -26 -13 -54 2 -69 15 -15 152 -16 179 -2 23 13 25
53 3 74 -11 12 -36 16 -94 16 -68 0 -81 -3 -90 -19z"/>
<path d="M3382 1648 c-7 -7 -12 -19 -12 -28 0 -31 23 -40 101 -40 43 0 84 3
93 6 22 9 20 51 -3 64 -27 14 -164 13 -179 -2z"/>
</g>
</svg>
